<svg id="svg" xmlns="http://www.w3.org/2000/svg" width="400" height="344" viewBox="-10 0 425 369">
<style>
#path{fill:#231f20;stroke:none;}
#svg{background-color:#dedede}
@media (prefers-color-scheme: dark) {
      #path{fill:#dedede;stroke:none;}
      #svg{background-color:#231f20}
}
</style>
<path id="path" d="M108.731 4.224c-5.097 2.044-13.302 4.448-18.232 5.342C74.059 12.548 20 32.992 20 36.228c0 3.085 25.52 16.117 57.488 29.357 22.898 9.483 222.126 9.483 245.024 0C354.48 52.345 380 39.313 380 36.228c0-3.253-54.096-23.687-70.663-26.691-5.021-.911-13.792-3.429-19.493-5.596-13.064-4.967-168.627-4.724-181.113.283M8 48.043c0 1.917 1.745 4.563 3.878 5.882 2.133 1.318 12.366 18.074 22.741 37.236 10.374 19.161 20.693 36.07 22.931 37.575 4.769 3.207 11.4.038 8.783-4.197-.989-1.6 3.291-12.214 9.51-23.587C88.818 77.225 89.097 77.722 54 61.968 23.556 48.302 8 43.593 8 48.043M344.002 62.66c-16.498 7.701-30.539 14.544-31.202 15.207-1.381 1.381 22.346 46.434 27.1 51.455 1.729 1.827 9.039-7.173 16.243-20C363.347 96.495 371.941 82.85 375.241 79c3.299-3.85 4.774-7 3.276-7-1.497 0 .07-5.4 3.483-12 8.403-16.25 1.474-15.765-37.998 2.66m37.606 16.215c-30.721 50.032-31.314 60.191-3.03 51.963l19.422-5.65 1.188-29.206c1.51-37.145-2.738-41.278-17.58-17.107M2.521 73C1.195 77.95.085 92.215.055 104.699L0 127.398l20.74 6.08c28.87 8.463 29.274 6.83 8.326-33.606C9.326 61.767 6.341 58.746 2.521 73m110.146 10.683C114.729 89.379 195.183 156 200 156c4.817 0 85.271-66.621 87.333-72.317C288.12 81.51 252.327 80 200 80s-88.12 1.51-87.333 3.683m-30.303 26.46C66.423 139.145 65.223 144 74 144c3.3 0 6 1.8 6 4s-1.993 4-4.428 4c-6.934 0-1.717 9.949 35.654 68 53.738 83.475 79.385 120.055 82.199 117.241 3.682-3.681 3.198-168.384-.501-170.67-1.692-1.045-24.642-4.975-51-8.732C115.566 154.083 91.3 149.353 88 147.33c-4.176-2.56-2.352-3.068 6-1.671 45.724 7.648 75.402 10.539 78.312 7.629 2.804-2.804-53.996-56.062-70.691-66.283-3.286-2.012-9.608 5.585-19.257 23.138m178.116 8.755c-47.058 40.072-44.179 41.765 45.52 26.761 8.352-1.397 10.176-.889 6 1.671-3.3 2.023-27.6 6.735-54 10.471-59.576 8.43-53.48-2.339-54.84 96.88l-1.16 84.6 10.877-6.43c5.982-3.537 10.194-7.114 9.359-7.948-.835-.835 20.553-35.13 47.529-76.211 57.798-88.02 61.073-93.746 54.809-95.834-6.667-2.222-5.599-8.858 1.426-8.858 8.814 0 7.469-6.312-6.923-32.493-16.217-29.497-15.114-29.636-58.597 7.391M10.316 139.489c-1.371 2.219.939 7.291 5.134 11.273 4.196 3.981 15.486 16.398 25.089 27.593C92.117 238.484 140.91 292 144.153 292c3.177 0-28.76-53.245-40.041-66.755-5.318-6.37-32.442-49.301-40.787-64.558-4.781-8.74-11.38-13.47-23.25-16.667-9.117-2.455-18.981-5.386-21.921-6.514-2.939-1.128-6.467-.236-7.838 1.983m352.939 3.821C346.065 149.445 320 175.954 320 187.302c0 4.451-31.767 49.864-37.519 53.637-2.465 1.616-3.113 2.966-1.44 3 1.672.033-3.551 9.988-11.607 22.121-33.436 50.36-6.59 24.004 97.718-95.933 30.446-35.007 29.884-38.873-3.897-26.817" fill-rule="evenodd"/></svg>